<svg width="536" height="388" viewBox="0 0 536 388" fill="none" xmlns="http://www.w3.org/2000/svg">
<path d="M341.566 290.872V384.403H106.923C80.1885 384.403 58.4371 363.423 58.4371 337.637C58.4371 311.851 80.1885 290.872 106.923 290.872H341.566Z" fill="#F2F2F2"/>
<path d="M347.33 383.683C347.329 384.637 346.95 385.552 346.274 386.226C345.599 386.901 344.683 387.28 343.727 387.281H102.744C89.6553 387.281 77.103 382.088 67.8482 372.846C58.5934 363.603 53.3941 351.068 53.3941 337.997C53.3941 324.926 58.5934 312.39 67.8482 303.148C77.103 293.906 89.6553 288.713 102.744 288.713H343.727C344.683 288.713 345.599 289.092 346.275 289.767C346.95 290.441 347.33 291.356 347.33 292.311C347.33 293.265 346.95 294.18 346.275 294.854C345.599 295.529 344.683 295.908 343.727 295.908H102.744C91.5659 295.908 80.8462 300.342 72.9424 308.235C65.0387 316.129 60.5984 326.834 60.5984 337.997C60.5984 349.16 65.0387 359.865 72.9424 367.758C80.8462 375.651 91.5659 380.086 102.744 380.086H343.727C344.683 380.086 345.599 380.465 346.274 381.14C346.95 381.814 347.329 382.729 347.33 383.683Z" fill="#A75000"/>
<path d="M341.566 312.456H89.4156C89.2245 312.456 89.0413 312.38 88.9062 312.245C88.7711 312.11 88.6952 311.927 88.6952 311.736C88.6952 311.545 88.7711 311.362 88.9062 311.227C89.0413 311.093 89.2245 311.017 89.4156 311.017H341.566C341.757 311.017 341.94 311.093 342.076 311.227C342.211 311.362 342.287 311.545 342.287 311.736C342.287 311.927 342.211 312.11 342.076 312.245C341.94 312.38 341.757 312.456 341.566 312.456Z" fill="#CCCCCC"/>
<path d="M341.566 329.723H89.4156C89.2245 329.723 89.0413 329.647 88.9062 329.512C88.7711 329.377 88.6952 329.194 88.6952 329.003C88.6952 328.813 88.7711 328.63 88.9062 328.495C89.0413 328.36 89.2245 328.284 89.4156 328.284H341.566C341.757 328.284 341.94 328.36 342.076 328.495C342.211 328.63 342.287 328.813 342.287 329.003C342.287 329.194 342.211 329.377 342.076 329.512C341.94 329.647 341.757 329.723 341.566 329.723Z" fill="#CCCCCC"/>
<path d="M341.566 346.99H89.4156C89.2245 346.99 89.0413 346.914 88.9062 346.779C88.7711 346.645 88.6952 346.462 88.6952 346.271C88.6952 346.08 88.7711 345.897 88.9062 345.762C89.0413 345.627 89.2245 345.551 89.4156 345.551H341.566C341.757 345.551 341.94 345.627 342.076 345.762C342.211 345.897 342.287 346.08 342.287 346.271C342.287 346.462 342.211 346.645 342.076 346.779C341.94 346.914 341.757 346.99 341.566 346.99Z" fill="#CCCCCC"/>
<path d="M341.566 364.258H89.4156C89.2245 364.258 89.0413 364.182 88.9062 364.047C88.7711 363.912 88.6952 363.729 88.6952 363.538C88.6952 363.347 88.7711 363.164 88.9062 363.029C89.0413 362.894 89.2245 362.819 89.4156 362.819H341.566C341.757 362.819 341.94 362.894 342.076 363.029C342.211 363.164 342.287 363.347 342.287 363.538C342.287 363.729 342.211 363.912 342.076 364.047C341.94 364.182 341.757 364.258 341.566 364.258Z" fill="#CCCCCC"/>
<path d="M522.911 308.478L464.149 381.308L281.437 234.285C260.62 217.533 256.863 187.568 273.063 167.489C289.263 147.41 319.381 144.702 340.199 161.454L522.911 308.478Z" fill="#F2F2F2"/>
<path d="M469.089 384.359C468.489 385.102 467.619 385.576 466.669 385.679C465.72 385.781 464.768 385.502 464.024 384.904L276.375 233.907C266.183 225.706 259.671 213.798 258.271 200.802C256.871 187.806 260.698 174.787 268.91 164.609C277.122 154.431 289.046 147.928 302.059 146.53C315.073 145.132 328.109 148.953 338.301 157.154L525.95 308.151C526.319 308.447 526.625 308.813 526.852 309.228C527.079 309.643 527.222 310.098 527.273 310.568C527.324 311.038 527.281 311.513 527.148 311.966C527.015 312.42 526.793 312.843 526.496 313.211C526.199 313.579 525.833 313.885 525.417 314.111C525.002 314.338 524.546 314.48 524.076 314.53C523.605 314.581 523.129 314.538 522.675 314.405C522.221 314.272 521.798 314.05 521.43 313.754L333.78 162.757C329.471 159.286 324.519 156.698 319.208 155.139C313.896 153.58 308.33 153.082 302.825 153.672C297.321 154.262 291.987 155.929 287.128 158.579C282.269 161.228 277.98 164.808 274.507 169.113C271.034 173.418 268.444 178.364 266.885 183.669C265.326 188.974 264.829 194.533 265.422 200.03C266.015 205.527 267.687 210.853 270.342 215.704C272.997 220.556 276.583 224.837 280.895 228.304L468.544 379.301C469.288 379.9 469.763 380.769 469.865 381.718C469.967 382.666 469.688 383.616 469.089 384.359Z" fill="#CCCCCC"/>
<path d="M509.351 325.285L313.006 167.291C312.932 167.232 312.871 167.159 312.826 167.076C312.78 166.993 312.752 166.902 312.742 166.808C312.731 166.714 312.74 166.619 312.767 166.528C312.793 166.438 312.838 166.353 312.897 166.279C312.956 166.206 313.03 166.145 313.113 166.099C313.196 166.054 313.287 166.026 313.381 166.016C313.475 166.005 313.57 166.014 313.661 166.041C313.752 166.067 313.836 166.111 313.91 166.171L510.255 324.164C510.328 324.224 510.39 324.297 510.435 324.38C510.481 324.463 510.509 324.554 510.52 324.648C510.53 324.742 510.521 324.837 510.495 324.928C510.468 325.018 510.424 325.103 510.364 325.177C510.305 325.25 510.232 325.311 510.148 325.357C510.065 325.402 509.974 325.43 509.88 325.441C509.786 325.451 509.691 325.442 509.6 325.415C509.509 325.389 509.424 325.344 509.351 325.285V325.285Z" fill="#CCCCCC"/>
<path d="M498.502 338.73L302.158 180.737C302.009 180.617 301.914 180.443 301.894 180.254C301.874 180.064 301.93 179.874 302.049 179.726C302.169 179.577 302.343 179.482 302.533 179.462C302.723 179.441 302.913 179.497 303.062 179.616L499.406 337.61C499.48 337.669 499.541 337.742 499.587 337.825C499.632 337.908 499.661 337.999 499.671 338.093C499.681 338.187 499.673 338.283 499.646 338.373C499.62 338.464 499.575 338.549 499.516 338.622C499.457 338.696 499.383 338.757 499.3 338.802C499.217 338.848 499.126 338.876 499.032 338.886C498.937 338.896 498.842 338.888 498.751 338.861C498.661 338.834 498.576 338.79 498.502 338.73Z" fill="#CCCCCC"/>
<path d="M487.654 352.176L291.309 194.182C291.16 194.063 291.065 193.889 291.045 193.699C291.025 193.509 291.08 193.319 291.2 193.171C291.32 193.022 291.494 192.927 291.684 192.907C291.874 192.886 292.065 192.942 292.213 193.062L488.558 351.056C488.632 351.115 488.693 351.188 488.738 351.271C488.784 351.354 488.812 351.445 488.822 351.539C488.832 351.633 488.824 351.728 488.797 351.819C488.771 351.909 488.726 351.994 488.667 352.067C488.608 352.141 488.534 352.202 488.451 352.247C488.368 352.293 488.277 352.321 488.183 352.331C488.089 352.341 487.994 352.333 487.903 352.306C487.812 352.28 487.728 352.235 487.654 352.176V352.176Z" fill="#CCCCCC"/>
<path d="M476.806 365.622L280.461 207.628C280.387 207.569 280.326 207.496 280.281 207.413C280.235 207.33 280.207 207.239 280.197 207.145C280.187 207.051 280.195 206.956 280.222 206.865C280.248 206.775 280.293 206.69 280.352 206.617C280.411 206.543 280.485 206.482 280.568 206.437C280.651 206.391 280.742 206.363 280.836 206.353C280.93 206.343 281.025 206.351 281.116 206.378C281.207 206.404 281.291 206.448 281.365 206.508L477.71 364.501C477.783 364.561 477.845 364.634 477.89 364.717C477.936 364.8 477.964 364.891 477.975 364.985C477.985 365.079 477.976 365.174 477.95 365.265C477.923 365.355 477.879 365.44 477.819 365.514C477.76 365.587 477.687 365.648 477.603 365.694C477.52 365.739 477.429 365.768 477.335 365.778C477.241 365.788 477.146 365.779 477.055 365.752C476.964 365.726 476.879 365.681 476.806 365.622Z" fill="#CCCCCC"/>
<path d="M535.28 388H0.72043C0.52936 388 0.346115 387.924 0.211009 387.789C0.0759017 387.654 0 387.471 0 387.281C0 387.09 0.0759017 386.907 0.211009 386.772C0.346115 386.637 0.52936 386.561 0.72043 386.561H535.28C535.471 386.561 535.654 386.637 535.789 386.772C535.924 386.907 536 387.09 536 387.281C536 387.471 535.924 387.654 535.789 387.789C535.654 387.924 535.471 388 535.28 388Z" fill="#CCCCCC"/>
<path d="M243.564 281.041L235.328 281.04L231.411 249.314L243.567 249.316L243.564 281.041Z" fill="#FFB8B8"/>
<path d="M229.444 278.69H245.328V288.678H219.443C219.443 287.366 219.702 286.067 220.205 284.855C220.707 283.644 221.444 282.543 222.373 281.615C223.301 280.688 224.404 279.952 225.617 279.45C226.83 278.948 228.131 278.69 229.444 278.69Z" fill="#2F2E41"/>
<path d="M159.421 281.041L151.185 281.04L147.268 249.314L159.424 249.316L159.421 281.041Z" fill="#FFB8B8"/>
<path d="M145.302 278.69H161.186V288.678H135.301C135.301 287.366 135.56 286.067 136.062 284.855C136.565 283.644 137.302 282.543 138.23 281.615C139.159 280.688 140.261 279.952 141.475 279.45C142.688 278.948 143.989 278.69 145.302 278.69Z" fill="#2F2E41"/>
<path d="M186.931 45.7101V42.1127C186.931 35.9589 189.378 30.0572 193.736 25.7058C198.093 21.3544 204.002 18.9098 210.164 18.9098H210.165C216.327 18.9098 222.236 21.3544 226.593 25.7058C230.951 30.0572 233.398 35.9589 233.398 42.1127V45.7101C233.398 50.1466 231.634 54.4013 228.492 57.5384C225.351 60.6754 221.091 62.4378 216.648 62.4378H203.681C201.481 62.4378 199.303 62.0051 197.271 61.1645C195.238 60.3239 193.392 59.0917 191.837 57.5384C190.281 55.9851 189.047 54.141 188.206 52.1115C187.364 50.082 186.931 47.9068 186.931 45.7101Z" fill="#2F2E41"/>
<path d="M210.164 63.6756C219.937 63.6756 227.859 55.7641 227.859 46.0047C227.859 36.2453 219.937 28.3338 210.164 28.3338C200.392 28.3338 192.47 36.2453 192.47 46.0047C192.47 55.7641 200.392 63.6756 210.164 63.6756Z" fill="#FFB8B8"/>
<path d="M113.918 106.737C114.636 106.06 115.494 105.549 116.431 105.238C117.369 104.928 118.363 104.827 119.344 104.942C120.325 105.057 121.268 105.386 122.108 105.904C122.948 106.423 123.664 107.119 124.206 107.944L139.374 105.079L143.366 113.86L121.888 117.606C120.44 118.422 118.743 118.68 117.117 118.33C115.492 117.98 114.052 117.047 113.069 115.707C112.087 114.367 111.63 112.714 111.787 111.061C111.943 109.408 112.701 107.87 113.918 106.737V106.737Z" fill="#FFB8B8"/>
<path d="M196.369 74.8042L196.568 75.1043L171.694 91.4682L129.723 104.853C129.167 105.031 128.69 105.397 128.373 105.887C128.056 106.378 127.919 106.962 127.986 107.542L128.901 115.418C128.942 115.767 129.055 116.103 129.233 116.405C129.412 116.708 129.651 116.969 129.937 117.174C130.222 117.378 130.548 117.521 130.892 117.593C131.236 117.664 131.591 117.663 131.934 117.59L171.435 109.134C173.347 108.727 175.155 107.932 176.746 106.799L204.69 86.9439C205.703 86.2201 206.511 85.247 207.036 84.1189C207.561 82.9909 207.785 81.7464 207.686 80.5064C207.583 79.2648 207.159 78.0711 206.454 77.043C205.75 76.0148 204.79 75.1875 203.668 74.6424C202.546 74.0973 201.301 73.8533 200.057 73.9343C198.812 74.0153 197.609 74.4185 196.568 75.1043L196.369 74.8042Z" fill="#CCCCCC"/>
<path d="M235.475 272.038C234.843 272.038 234.224 271.854 233.695 271.509C233.165 271.164 232.748 270.672 232.494 270.094L194.736 176.922C194.648 176.72 194.5 176.55 194.312 176.434C194.124 176.319 193.905 176.264 193.685 176.276C193.465 176.288 193.253 176.368 193.079 176.504C192.906 176.64 192.778 176.825 192.713 177.036L161.909 267.742C161.778 268.165 161.563 268.556 161.276 268.892C160.989 269.228 160.637 269.502 160.24 269.696C159.843 269.891 159.41 270.003 158.969 270.025C158.527 270.046 158.085 269.978 157.671 269.822L147.341 265.954C146.781 265.746 146.289 265.387 145.92 264.916C145.552 264.446 145.321 263.882 145.254 263.289C140.607 222.86 181.132 120.812 181.542 119.786L181.655 119.502L218.597 127.663L218.674 127.747C233.412 143.804 245.527 245.079 247.806 265.218C247.89 265.946 247.725 266.68 247.336 267.301C246.946 267.922 246.357 268.392 245.665 268.633L236.547 271.854C236.203 271.976 235.84 272.038 235.475 272.038Z" fill="#2F2E41"/>
<path d="M203.646 130.948C194.695 130.948 184.717 129.165 181.645 121.81L181.575 121.641L181.67 121.484C184.095 117.512 187.299 110.735 185.577 109.463C182.184 106.958 180.538 102.837 180.684 97.2137C181.001 85.0073 189.329 74.1699 201.408 70.2462H201.408C204.779 69.1687 208.21 68.2865 211.683 67.604C214.215 67.0938 216.829 67.1499 219.337 67.7684C221.845 68.3868 224.184 69.5523 226.187 71.181C228.216 72.8204 229.855 74.8881 230.988 77.2356C232.121 79.583 232.72 82.152 232.74 84.7578C232.867 97.8024 230.856 115.971 220.556 128.444C220.074 129.023 219.402 129.413 218.659 129.546C213.704 130.441 208.681 130.91 203.646 130.948Z" fill="#CCCCCC"/>
<path d="M200.316 130.459C200.803 128.714 201.96 127.232 203.536 126.334C205.111 125.436 206.978 125.196 208.73 125.664C209.088 125.764 209.436 125.893 209.773 126.05L221.29 115.583L229.3 120.972L212.83 135.527C212.086 136.867 210.915 137.919 209.503 138.517C208.092 139.115 206.521 139.224 205.04 138.827C204.177 138.592 203.369 138.187 202.664 137.638C201.959 137.089 201.369 136.405 200.93 135.627C200.491 134.849 200.211 133.991 200.105 133.104C200 132.217 200.072 131.318 200.316 130.459Z" fill="#FFB8B8"/>
<path d="M219.466 130.592C218.719 130.593 217.994 130.334 217.416 129.862L212.874 126.155C212.495 125.846 212.192 125.456 211.986 125.013C211.78 124.57 211.676 124.086 211.684 123.598C211.692 123.11 211.81 122.63 212.029 122.193C212.249 121.757 212.565 121.376 212.953 121.079L232.002 106.488C232.228 106.315 232.376 106.059 232.414 105.777C232.452 105.495 232.378 105.209 232.206 104.981L220.449 89.4579C219.083 87.6604 218.397 85.4382 218.514 83.1846C218.631 80.931 219.543 78.7915 221.088 77.1447C222.715 75.3898 224.943 74.3099 227.33 74.1193C229.717 73.9286 232.089 74.6411 233.975 76.1154L234.049 76.1937L246.327 93.7505C247.654 94.7901 248.723 96.122 249.45 97.6424C250.177 99.1628 250.542 100.83 250.517 102.515C250.492 104.2 250.077 105.856 249.306 107.354C248.534 108.852 247.425 110.152 246.067 111.151L221.396 129.957C220.837 130.37 220.161 130.592 219.466 130.592Z" fill="#CCCCCC"/>
<path d="M194.491 41.0336V32.266L210.164 25.431L225.109 32.266V41.0336C225.109 41.4152 224.958 41.7812 224.687 42.051C224.417 42.3209 224.051 42.4725 223.668 42.4725H195.932C195.55 42.4725 195.183 42.3209 194.913 42.051C194.643 41.7812 194.491 41.4152 194.491 41.0336Z" fill="#2F2E41"/>
<path d="M209.445 20.073C207.14 12.7066 211.98 4.26451 219.135 1.34874C226.29 -1.56703 234.85 0.471183 240.888 5.28848C246.925 10.1058 250.671 17.3212 252.656 24.7798C254.64 32.2383 255.017 40.0159 255.384 47.7246C264.174 49.3372 270.154 59.75 267.109 68.142C264.064 76.5339 252.792 80.7031 245.008 76.3168C237.224 71.9306 234.969 60.1398 240.587 53.1976C243.245 49.9127 244.73 45.836 244.807 41.6131C244.883 37.3902 243.547 33.2626 241.009 29.8839C238.471 26.5053 234.877 24.0688 230.796 22.9603C226.715 21.8518 222.381 22.1348 218.479 23.7643C214.146 25.5737 208.71 20.8725 209.445 20.073Z" fill="#2F2E41"/>
<path d="M110.668 72.7261C100.143 72.6571 89.7498 70.3838 80.1594 66.053C79.5885 65.799 79.104 65.3845 78.7647 64.8603C78.4255 64.336 78.2463 63.7245 78.2489 63.1003V36.8987C78.2499 36.0403 78.5918 35.2174 79.1995 34.6104C79.8073 34.0035 80.6313 33.6621 81.4909 33.6611H139.846C140.705 33.6621 141.529 34.0035 142.137 34.6104C142.745 35.2174 143.087 36.0403 143.088 36.8987V63.1004C143.09 63.7246 142.911 64.336 142.572 64.8603C142.233 65.3845 141.748 65.799 141.177 66.0531C131.587 70.3838 121.193 72.6571 110.668 72.7261Z" fill="#A75000"/>
<path d="M110.66 51.4995C110.228 51.4999 109.799 51.4139 109.4 51.2466L63.1259 31.7493C62.5291 31.4979 62.0215 31.0737 61.6683 30.5315C61.3152 29.9893 61.1328 29.3538 61.1447 28.7071C61.1566 28.0604 61.3622 27.4321 61.7349 26.9032C62.1077 26.3742 62.6306 25.9689 63.2361 25.7395L109.511 8.20768C110.257 7.924 111.081 7.92575 111.825 8.2126L157.48 25.7444C158.082 25.9757 158.602 26.3811 158.972 26.9087C159.342 27.4364 159.546 28.0624 159.558 28.7065C159.57 29.3507 159.389 29.9837 159.039 30.5247C158.688 31.0657 158.184 31.49 157.591 31.7433L111.935 51.2403C111.532 51.4118 111.098 51.4999 110.66 51.4995Z" fill="#A75000"/>
<path d="M83.6521 67.8359C86.0394 67.8359 87.9747 65.9032 87.9747 63.5191C87.9747 61.1349 86.0394 59.2022 83.6521 59.2022C81.2648 59.2022 79.3296 61.1349 79.3296 63.5191C79.3296 65.9032 81.2648 67.8359 83.6521 67.8359Z" fill="#3F3D56"/>
<path opacity="0.2" d="M157.749 28.9758L112.093 48.4728C111.737 48.6248 111.354 48.7036 110.967 48.7046C110.58 48.7055 110.197 48.6285 109.84 48.4783L63.5652 28.9815C62.9841 28.7425 62.4992 28.3169 62.1873 27.772C61.9833 28.1253 61.8569 28.518 61.8164 28.9239C61.776 29.3298 61.8224 29.7396 61.9528 30.1262C62.0831 30.5128 62.2942 30.8672 62.5723 31.166C62.8503 31.4649 63.1887 31.7012 63.5652 31.8594L109.84 51.3561C110.197 51.5064 110.58 51.5834 110.967 51.5824C111.354 51.5815 111.737 51.5027 112.093 51.3507L157.749 31.8537C158.123 31.6941 158.46 31.457 158.736 31.1581C159.012 30.8591 159.221 30.5051 159.35 30.1193C159.479 29.7336 159.525 29.3249 159.484 28.9203C159.443 28.5156 159.317 28.1243 159.114 27.7719C158.804 28.3125 158.324 28.7357 157.749 28.9758Z" fill="black"/>
<path d="M84.0154 63.5022C84.2064 63.5022 84.3897 63.4264 84.5248 63.2915C84.6599 63.1565 84.7358 62.9735 84.7358 62.7827V38.7082L108.496 30.0637C108.688 30.0666 108.872 29.9935 109.009 29.8606C109.146 29.7276 109.225 29.5458 109.228 29.355C109.23 29.1641 109.157 28.98 109.024 28.8431C108.891 28.7061 108.709 28.6276 108.518 28.6248L84.7572 37.2693C84.566 37.2649 84.3759 37.2993 84.1984 37.3705C84.0209 37.4416 83.8597 37.548 83.7246 37.6831C83.5881 37.8167 83.4797 37.9762 83.4059 38.1523C83.3321 38.3283 83.2943 38.5174 83.2949 38.7082V62.7827C83.2949 62.9735 83.3708 63.1565 83.5059 63.2915C83.6411 63.4264 83.8243 63.5022 84.0154 63.5022Z" fill="#3F3D56"/>
</svg>
